<?xml version="1.0" encoding="UTF-8" standalone="no"?><!-- Generator: Gravit.io --><svg xmlns="http://www.w3.org/2000/svg" xmlns:xlink="http://www.w3.org/1999/xlink" style="isolation:isolate" viewBox="573.102 238 64.898 30.5" width="64.898pt" height="30.5pt"><defs><clipPath id="_clipPath_jAZrcUIMgkLJxrFCHsP1N3eHhJJPBZqa"><rect x="573.102" y="238" width="64.898" height="30.5"/></clipPath></defs><g clip-path="url(#_clipPath_jAZrcUIMgkLJxrFCHsP1N3eHhJJPBZqa)"><text transform="matrix(1,0,0,1,591.305,255.824)" style="font-family:'Consolas';font-weight:400;font-size:24px;font-style:normal;fill:#569cd6;stroke:none;">it</text><text transform="matrix(1,0,0,1,587.356,265.669)" style="font-family:'Consolas';font-weight:400;font-size:11px;font-style:normal;fill:#569cd6;stroke:none;">mentor</text><path d=" M 635.613 254.608 L 630.102 263.554 L 631.204 265.727 L 638 254.648 L 631.204 243.569 L 630.102 245.761 L 635.613 254.608 Z " fill="rgb(128,128,128)"/><path d=" M 631.822 254.629 L 629.102 258.9 L 629.646 259.937 L 633 254.648 L 629.646 249.358 L 629.102 250.405 L 631.822 254.629 Z " fill="rgb(128,128,128)"/><path d=" M 575.488 254.608 L 581 263.554 L 579.898 265.727 L 573.102 254.648 L 579.898 243.569 L 581 245.761 L 575.488 254.608 Z " fill="rgb(128,128,128)"/><path d=" M 579.28 254.629 L 582 258.9 L 581.456 259.937 L 578.102 254.648 L 581.456 249.358 L 582 250.405 L 579.28 254.629 Z " fill="rgb(128,128,128)"/></g></svg>